<svg width="25" height="24" viewBox="0 0 25 24" fill="none" xmlns="http://www.w3.org/2000/svg">
<g id="Mobile onboarding">
<path id="Vector (Stroke)" fill-rule="evenodd" clip-rule="evenodd" d="M4.56641 2.39995C4.56641 1.18492 5.55138 0.199951 6.76641 0.199951H18.7664C19.9814 0.199951 20.9664 1.18492 20.9664 2.39995V21.6C20.9664 22.815 19.9814 23.8 18.7664 23.8H6.76641C5.55138 23.8 4.56641 22.815 4.56641 21.6V2.39995ZM6.76641 1.39995C6.21412 1.39995 5.76641 1.84767 5.76641 2.39995V19.5333H19.7664V2.39995C19.7664 1.84767 19.3187 1.39995 18.7664 1.39995H6.76641ZM19.7664 20.7333H5.76641V21.6C5.76641 22.1522 6.21412 22.6 6.76641 22.6H18.7664C19.3187 22.6 19.7664 22.1522 19.7664 21.6V20.7333ZM12.8664 5.79995C11.6514 5.79995 10.6664 6.78492 10.6664 7.99995C10.6664 9.21498 11.6514 10.2 12.8664 10.2C14.0814 10.2 15.0664 9.21498 15.0664 7.99995C15.0664 6.78492 14.0814 5.79995 12.8664 5.79995ZM15.0075 10.6412C15.7756 10.0179 16.2664 9.06623 16.2664 7.99995C16.2664 6.12218 14.7442 4.59995 12.8664 4.59995C10.9886 4.59995 9.46641 6.12218 9.46641 7.99995C9.46641 9.06616 9.95718 10.0178 10.7252 10.6411C8.80797 11.4701 7.46641 13.3784 7.46641 15.6C7.46641 15.9313 7.73504 16.2 8.06641 16.2C8.39778 16.2 8.66641 15.9313 8.66641 15.6C8.66641 13.2804 10.5468 11.4 12.8664 11.4C13.9425 11.4 14.9228 11.8038 15.6663 12.4693C15.9132 12.6903 16.2925 12.6692 16.5135 12.4223C16.7345 12.1754 16.7135 11.7961 16.4666 11.5751C16.0368 11.1905 15.5448 10.8735 15.0075 10.6412ZM18.055 12.7428C18.3075 12.9574 18.3382 13.3361 18.1236 13.5885L15.4036 16.7885C15.2896 16.9227 15.1224 17 14.9464 17C14.7704 17 14.6032 16.9227 14.4892 16.7885L13.2092 15.2827C12.9946 15.0302 13.0253 14.6515 13.2778 14.4369C13.5303 14.2223 13.909 14.253 14.1236 14.5055L14.9464 15.4735L17.2092 12.8114C17.4239 12.5589 17.8025 12.5282 18.055 12.7428Z" fill="url(#paint0_linear_10914_19107)" style=""/>
</g>
<defs>
<linearGradient id="paint0_linear_10914_19107" x1="3.33641" y1="19.08" x2="24.0801" y2="9.86101" gradientUnits="userSpaceOnUse">
<stop stop-color="#6C29ED" style="stop-color:#6C29ED;stop-color:color(display-p3 0.4235 0.1608 0.9294);stop-opacity:1;"/>
<stop offset="1" stop-color="#00CCFF" style="stop-color:#00CCFF;stop-color:color(display-p3 0.0000 0.8000 1.0000);stop-opacity:1;"/>
</linearGradient>
</defs>
</svg>
