<svg width="25" height="25" viewBox="0 0 25 25" fill="none" xmlns="http://www.w3.org/2000/svg">
<g id="Icon">
<g id="Vector">
<path d="M20.4701 2.78009L12.9119 1.00099C12.652 0.947587 12.3839 0.947587 12.1239 1.00099L4.60149 2.78009C4.02414 2.88171 3.49962 3.17966 3.11668 3.62352C2.73374 4.06738 2.5159 4.62991 2.5 5.21592V17.1562C2.50863 17.8167 2.68117 18.4646 3.00212 19.0419C3.32307 19.6192 3.78238 20.1078 4.33881 20.4637L10.0701 24.2129C10.8013 24.6921 11.6557 24.9492 12.5299 24.9532C13.4046 24.9527 14.2598 24.6953 14.9896 24.2129L20.709 20.4637C21.2632 20.1064 21.7201 19.6172 22.0389 19.04C22.3578 18.4628 22.5285 17.8156 22.5358 17.1562V5.21592C22.5216 4.63501 22.3088 4.0765 21.933 3.63333C21.5572 3.19016 21.0409 2.88904 20.4701 2.78009ZM20.6254 17.204C20.6184 17.5465 20.5263 17.8818 20.3575 18.1799C20.1887 18.4779 19.9484 18.7293 19.6582 18.9114L13.9388 22.6607C13.5214 22.9384 13.0312 23.0866 12.5299 23.0866C12.0285 23.0866 11.5383 22.9384 11.1209 22.6607L5.38955 18.9114C5.09792 18.7299 4.85584 18.479 4.68497 18.181C4.51411 17.883 4.41978 17.5473 4.41045 17.204V5.26368C4.42862 5.11599 4.4964 4.97885 4.60269 4.87473C4.70899 4.7706 4.84749 4.70566 4.99552 4.69054L12.506 2.8995L20.0642 4.65472C20.2077 4.67023 20.3416 4.73434 20.4437 4.83641C20.5458 4.93849 20.6099 5.07239 20.6254 5.21592V17.204Z" fill="url(#paint0_linear_10914_18956)" style=""/>
<path d="M16.8286 9.28749L11.9211 14.1352L8.47039 10.6726C8.3818 10.5808 8.276 10.5075 8.15905 10.4566C8.0421 10.4058 7.91627 10.3785 7.78877 10.3762C7.66126 10.374 7.53456 10.3969 7.41591 10.4437C7.29726 10.4904 7.18898 10.5601 7.09725 10.6487C7.00553 10.7373 6.93214 10.8431 6.8813 10.96C6.83046 11.077 6.80315 11.2028 6.80093 11.3303C6.79871 11.4578 6.82163 11.5845 6.86838 11.7032C6.91512 11.8218 6.98478 11.9301 7.07337 12.0218L11.2405 16.177C11.3293 16.2676 11.4352 16.3396 11.552 16.3888C11.6689 16.438 11.7943 16.4634 11.9211 16.4636C12.0479 16.4634 12.1734 16.438 12.2902 16.3888C12.4071 16.3396 12.513 16.2676 12.6017 16.177L18.142 10.6367C18.2746 10.4545 18.3385 10.2313 18.3224 10.0065C18.3064 9.78174 18.2113 9.56989 18.0541 9.40841C17.8969 9.24693 17.6877 9.14623 17.4634 9.1241C17.2392 9.10197 17.0143 9.15984 16.8286 9.28749Z" fill="url(#paint1_linear_10914_18956)" style=""/>
</g>
</g>
<defs>
<linearGradient id="paint0_linear_10914_18956" x1="0.997313" y1="20.1548" x2="24.6101" y2="7.54387" gradientUnits="userSpaceOnUse">
<stop stop-color="#6C29ED" style="stop-color:#6C29ED;stop-color:color(display-p3 0.4235 0.1608 0.9294);stop-opacity:1;"/>
<stop offset="1" stop-color="#00CCFF" style="stop-color:#00CCFF;stop-color:color(display-p3 0.0000 0.8000 1.0000);stop-opacity:1;"/>
</linearGradient>
<linearGradient id="paint1_linear_10914_18956" x1="0.997313" y1="20.1548" x2="24.6101" y2="7.54387" gradientUnits="userSpaceOnUse">
<stop stop-color="#6C29ED" style="stop-color:#6C29ED;stop-color:color(display-p3 0.4235 0.1608 0.9294);stop-opacity:1;"/>
<stop offset="1" stop-color="#00CCFF" style="stop-color:#00CCFF;stop-color:color(display-p3 0.0000 0.8000 1.0000);stop-opacity:1;"/>
</linearGradient>
</defs>
</svg>
